<svg width="375" height="667" viewBox="0 0 375 667" fill="none" xmlns="http://www.w3.org/2000/svg">
<rect width="375" height="667" fill="white"/>
<rect width="375" height="80" fill="white"/>
<path fill-rule="evenodd" clip-rule="evenodd" d="M57.8299 44.5084C57.1757 44.2206 56.5308 43.8972 55.8953 43.5383L54 46.4206C54.6654 46.8019 55.3888 47.1514 56.1701 47.4692C56.9514 47.7869 57.7738 48.0598 58.6374 48.2879C59.5009 48.5159 60.4037 48.6916 61.3458 48.815C62.2879 48.9383 63.2523 49 64.2393 49C65.7346 49 67.0916 48.8598 68.3103 48.5794C69.529 48.2991 70.5701 47.8879 71.4336 47.3458C72.2972 46.8037 72.9626 46.1383 73.4299 45.3495C73.8972 44.5607 74.1308 43.6617 74.1308 42.6523C74.1308 41.8972 73.9925 41.215 73.7159 40.6056C73.4393 39.9963 73.0318 39.4766 72.4935 39.0467C71.9551 38.6168 71.2879 38.286 70.4916 38.0542C69.6953 37.8224 68.7813 37.7065 67.7495 37.7065C67.2037 37.7065 66.6411 37.7346 66.0617 37.7907C65.4822 37.8467 64.914 37.9084 64.357 37.9757L63.5411 38.0724L62.7645 38.1607C62.2598 38.2168 61.8131 38.2449 61.4243 38.2449C60.4598 38.2449 59.7421 38.0785 59.271 37.7458C58.8 37.4131 58.5645 36.985 58.5645 36.4617C58.5645 36.1925 58.6374 35.9215 58.7832 35.6486C58.929 35.3757 59.1888 35.129 59.5626 34.9084C59.9365 34.6878 60.4393 34.5065 61.071 34.3645C61.7028 34.2224 62.5084 34.1514 63.4879 34.1514C64.1757 34.1514 64.8505 34.1907 65.5121 34.2692C66.1738 34.3477 66.8149 34.4542 67.4355 34.5888C68.0561 34.7234 68.6505 34.8822 69.2187 35.0654C69.7869 35.2486 70.3178 35.4486 70.8112 35.6654L72.3701 32.7944C71.772 32.5252 71.1252 32.2804 70.4299 32.0598C69.7346 31.8393 69.0112 31.6505 68.2598 31.4935C67.5084 31.3364 66.7365 31.215 65.9439 31.129C65.1514 31.043 64.3626 31 63.5776 31C62.4935 31 61.5271 31.0766 60.6785 31.2299C59.8299 31.3832 59.0822 31.5944 58.4355 31.8636C57.7888 32.1327 57.2374 32.4523 56.7813 32.8224C56.3252 33.1925 55.9533 33.5925 55.6654 34.0224C55.3776 34.4523 55.1682 34.9028 55.0374 35.3738C54.9065 35.8449 54.8411 36.3196 54.8411 36.7981C54.8411 37.6056 55.0056 38.3121 55.3346 38.9178C55.6636 39.5234 56.1065 40.028 56.6636 40.4318C57.2206 40.8355 57.8598 41.1383 58.5813 41.3402C59.3028 41.5421 60.0561 41.643 60.8411 41.643C61.3122 41.643 61.8149 41.6112 62.3495 41.5477C62.8841 41.4841 63.4262 41.415 63.9757 41.3402L64.7958 41.2322L65.6075 41.1327C66.1458 41.0692 66.6579 41.0374 67.1439 41.0374C68.2505 41.0374 69.0692 41.2224 69.6 41.5925C70.1308 41.9626 70.3963 42.4654 70.3963 43.1009C70.3963 43.4972 70.2897 43.8635 70.0766 44.2C69.8635 44.5365 69.5234 44.8262 69.0561 45.0692C68.5888 45.3122 67.9851 45.5028 67.2449 45.6411C66.5047 45.7794 65.6075 45.8486 64.5533 45.8486C63.6785 45.8486 62.8542 45.7963 62.0804 45.6916C61.3065 45.5869 60.5682 45.4355 59.8654 45.2374C59.1626 45.0393 58.4841 44.7963 57.8299 44.5084ZM24 31.2243H27.5776V48.7533H24V31.2243ZM32.086 31.2243H35.6411L46.5645 36.9439V31.2243H50.1196V48.7533H46.5645V40.7121L35.6411 35.0262V48.7533H32.086V31.2243ZM77.3832 31.2243H80.9383V40.8804C80.9383 41.6729 81.0467 42.3776 81.2636 42.9944C81.4804 43.6112 81.8037 44.1327 82.2336 44.5589C82.6636 44.985 83.1963 45.3084 83.8318 45.529C84.4673 45.7495 85.2075 45.8598 86.0523 45.8598C86.8897 45.8598 87.628 45.7495 88.2673 45.529C88.9065 45.3084 89.4411 44.985 89.871 44.5589C90.3009 44.1327 90.6243 43.6112 90.8411 42.9944C91.0579 42.3776 91.1664 41.6729 91.1664 40.8804V31.2243H94.7215V41.3065C94.7215 42.4579 94.5271 43.5047 94.1383 44.4467C93.7495 45.3888 93.1851 46.1963 92.4449 46.8692C91.7047 47.5421 90.7981 48.0617 89.7252 48.428C88.6523 48.7944 87.428 48.9776 86.0523 48.9776C84.6766 48.9776 83.4523 48.7944 82.3794 48.428C81.3065 48.0617 80.4 47.5421 79.6598 46.8692C78.9196 46.1963 78.3551 45.3888 77.9664 44.4467C77.5776 43.5047 77.3832 42.4579 77.3832 41.3065V31.2243ZM107.966 31.2243H99.0505V48.7533H102.606V43.7626L108.09 43.7738L111.387 48.7533H115.738L111.925 43.1458C112.591 42.8916 113.17 42.572 113.664 42.1869C114.157 41.8019 114.566 41.3626 114.892 40.8692C115.217 40.3757 115.458 39.8355 115.615 39.2486C115.772 38.6617 115.85 38.043 115.85 37.3925C115.85 36.428 115.692 35.5645 115.374 34.8019C115.056 34.0392 114.572 33.3925 113.921 32.8617C113.271 32.3308 112.452 31.9252 111.465 31.6449C110.479 31.3645 109.312 31.2243 107.966 31.2243ZM108.056 40.6897C108.729 40.6897 109.318 40.6112 109.822 40.4542C110.327 40.2972 110.75 40.0766 111.09 39.7925C111.43 39.5084 111.684 39.1626 111.852 38.7551C112.021 38.3477 112.105 37.8935 112.105 37.3925C112.105 36.4131 111.768 35.6561 111.095 35.1215C110.422 34.5869 109.409 34.3196 108.056 34.3196H102.606V40.6897H108.056ZM134.983 31.2243H120.056V48.7533H135.219V45.6467H123.611V40.7682H133.682V37.8411H123.611V34.3421H134.983V31.2243Z" fill="#2C2830"/>
<rect x="319.75" y="24.75" width="30.5" height="30.5" fill="white" stroke="#2C2830" stroke-width="1.5"/>
<rect x="329.874" y="33.5629" width="16" height="1.5" transform="rotate(45 329.874 33.5629)" fill="#2C2830"/>
<rect x="328.813" y="44.8765" width="16" height="1.5" transform="rotate(-45 328.813 44.8765)" fill="#2C2830"/>
<rect y="80" width="375" height="587" fill="#2C2830"/>
<mask id="mask0_0_2" style="mask-type:alpha" maskUnits="userSpaceOnUse" x="0" y="80" width="375" height="587">
<rect y="80" width="375" height="587" fill="white"/>
</mask>
<g mask="url(#mask0_0_2)">
<path fill-rule="evenodd" clip-rule="evenodd" d="M309.564 490.343C213.876 460.406 115.487 410.474 14.7569 501.675C-85.9731 592.877 -149.301 672.768 -108.406 776.138C-67.5102 879.508 99.4214 815.123 147.924 907.511C196.427 999.899 89.8554 1083.75 135.801 1165.97C181.746 1248.2 217.075 1300.9 364.728 1248.62C512.382 1196.33 498.768 1063.31 611.052 985.409C723.335 907.511 844.819 790.893 678.102 582.805C511.384 374.717 405.251 520.279 309.564 490.343Z" stroke="#96A9C6"/>
<path fill-rule="evenodd" clip-rule="evenodd" d="M321.902 539.672C243.919 515.358 163.733 474.803 81.6395 548.877C-0.453674 622.95 -52.065 687.837 -18.7359 771.794C14.5932 855.75 150.64 803.457 190.169 878.494C229.697 953.531 142.844 1021.63 180.288 1088.42C217.733 1155.2 246.525 1198 366.86 1155.54C487.195 1113.08 476.1 1005.03 567.61 941.763C659.119 878.494 758.126 783.778 622.254 614.77C486.382 445.762 399.885 563.986 321.902 539.672Z" stroke="#96A9C6"/>
<path fill-rule="evenodd" clip-rule="evenodd" d="M344.947 571.546C281.844 551.722 216.958 518.657 150.529 579.05C84.0995 639.443 42.336 692.347 69.3056 760.798C96.2753 829.249 206.363 786.614 238.35 847.793C270.336 908.971 200.054 964.496 230.354 1018.95C260.654 1073.39 283.953 1108.29 381.327 1073.67C478.701 1039.05 469.723 950.961 543.772 899.377C617.82 847.793 697.936 770.569 587.99 632.774C478.043 494.979 408.051 591.37 344.947 571.546Z" stroke="#96A9C6"/>
<path fill-rule="evenodd" clip-rule="evenodd" d="M368.21 611.166C317.271 595.285 264.894 568.797 211.27 617.178C157.647 665.56 123.934 707.941 145.705 762.778C167.475 817.614 256.341 783.458 282.162 832.469C307.982 881.48 251.249 925.961 275.708 969.58C300.167 1013.2 318.974 1041.16 397.577 1013.42C476.181 985.687 468.933 915.118 528.707 873.793C588.482 832.469 653.153 770.605 564.401 660.217C475.649 549.829 419.149 627.047 368.21 611.166Z" stroke="#96A9C6"/>
<path fill-rule="evenodd" clip-rule="evenodd" d="M373.18 636.232C331.582 623.235 288.809 601.557 245.018 641.152C201.227 680.746 173.697 715.431 191.475 760.309C209.254 805.186 281.825 777.234 302.91 817.344C323.996 857.454 277.666 893.857 297.64 929.554C317.614 965.252 332.972 988.131 397.162 965.433C461.352 942.735 455.434 884.982 504.247 851.163C553.061 817.344 605.874 766.715 533.396 676.374C460.918 586.033 414.779 649.228 373.18 636.232Z" stroke="#96A9C6"/>
<path fill-rule="evenodd" clip-rule="evenodd" d="M384.992 654.895C351.214 644.344 316.482 626.746 280.923 658.889C245.365 691.032 223.009 719.188 237.446 755.62C251.882 792.052 310.811 769.36 327.932 801.921C345.054 834.482 307.434 864.034 323.653 893.013C339.872 921.992 352.343 940.565 404.466 922.14C456.589 903.714 451.783 856.83 491.42 829.375C531.057 801.921 573.942 760.82 515.089 687.482C456.237 614.144 418.771 665.445 384.992 654.895Z" stroke="#96A9C6"/>
</g>
<path d="M111.318 134.02V139.44H116.978V134.02H119.338V147H116.978V141.5H111.318V147H108.958V134.02H111.318ZM129.423 133.76C130.289 133.76 131.083 133.907 131.803 134.2C132.523 134.48 133.143 134.9 133.663 135.46C134.756 136.633 135.303 138.313 135.303 140.5C135.303 142.7 134.756 144.4 133.663 145.6C132.623 146.72 131.203 147.28 129.403 147.28C127.616 147.28 126.203 146.707 125.163 145.56C124.069 144.373 123.523 142.687 123.523 140.5C123.523 138.287 124.069 136.593 125.163 135.42C126.189 134.313 127.609 133.76 129.423 133.76ZM132.863 140.54C132.863 139.047 132.549 137.9 131.923 137.1C131.309 136.287 130.476 135.88 129.423 135.88C128.369 135.88 127.529 136.287 126.903 137.1C126.276 137.9 125.963 139.047 125.963 140.54C125.963 142.02 126.276 143.16 126.903 143.96C127.529 144.747 128.369 145.14 129.423 145.14C130.476 145.14 131.309 144.747 131.923 143.96C132.549 143.16 132.863 142.02 132.863 140.54ZM140.639 134.02L143.499 143.88L146.279 134.88H147.879L150.819 143.92L153.859 134.02H156.519L152.059 147H149.579L147.139 139.68L144.719 147H142.239L137.999 134.02H140.639ZM167.741 134.02L170.601 143.88L173.381 134.88H174.981L177.921 143.92L180.961 134.02H183.621L179.161 147H176.681L174.241 139.68L171.821 147H169.341L165.101 134.02H167.741ZM187.221 134.02H195.581V136.06H189.581V139.48H195.201V141.52H189.581V144.94H195.581V147H187.221V134.02ZM207.925 134.02L210.785 143.88L213.565 134.88H215.165L218.105 143.92L221.145 134.02H223.805L219.345 147H216.865L214.425 139.68L212.005 147H209.525L205.285 134.02H207.925ZM232.406 133.76C233.272 133.76 234.066 133.907 234.786 134.2C235.506 134.48 236.126 134.9 236.646 135.46C237.739 136.633 238.286 138.313 238.286 140.5C238.286 142.7 237.739 144.4 236.646 145.6C235.606 146.72 234.186 147.28 232.386 147.28C230.599 147.28 229.186 146.707 228.146 145.56C227.052 144.373 226.506 142.687 226.506 140.5C226.506 138.287 227.052 136.593 228.146 135.42C229.172 134.313 230.592 133.76 232.406 133.76ZM235.846 140.54C235.846 139.047 235.532 137.9 234.906 137.1C234.292 136.287 233.459 135.88 232.406 135.88C231.352 135.88 230.512 136.287 229.886 137.1C229.259 137.9 228.946 139.047 228.946 140.54C228.946 142.02 229.259 143.16 229.886 143.96C230.512 144.747 231.352 145.14 232.406 145.14C233.459 145.14 234.292 144.747 234.906 143.96C235.532 143.16 235.846 142.02 235.846 140.54ZM252.081 138C252.081 138.92 251.821 139.707 251.301 140.36C250.781 141.013 250.035 141.467 249.061 141.72L252.541 147H249.461L246.601 141.94H244.801V147H242.441V134.02H247.241C248.775 134.02 249.968 134.387 250.821 135.12C251.661 135.827 252.081 136.787 252.081 138ZM247.021 140.36C247.888 140.36 248.541 140.167 248.981 139.78C249.421 139.38 249.641 138.86 249.641 138.22C249.641 137.567 249.441 137.047 249.041 136.66C248.641 136.26 248.041 136.06 247.241 136.06H244.801V140.36H247.021ZM259.056 134.02V139.36L264.176 134.02H267.416L261.696 139.86L267.796 147H264.736L260.116 141.5L259.056 142.58V147H256.676V134.02H259.056Z" fill="white"/>
<path d="M162.295 198.02H167.535C168.975 198.02 170.088 198.36 170.875 199.04C171.622 199.667 171.995 200.473 171.995 201.46C171.995 202.193 171.788 202.82 171.375 203.34C170.975 203.86 170.408 204.227 169.675 204.44C170.408 204.587 171.015 204.92 171.495 205.44C171.975 205.947 172.215 206.6 172.215 207.4C172.215 209 171.422 210.093 169.835 210.68C169.235 210.893 168.475 211 167.555 211H162.295V198.02ZM167.495 208.94C168.255 208.94 168.802 208.787 169.135 208.48C169.482 208.173 169.655 207.767 169.655 207.26C169.655 206.753 169.475 206.347 169.115 206.04C168.768 205.72 168.228 205.56 167.495 205.56H164.655V208.94H167.495ZM164.655 203.5H167.435C168.142 203.5 168.675 203.347 169.035 203.04C169.395 202.733 169.575 202.32 169.575 201.8C169.575 201.267 169.395 200.847 169.035 200.54C168.688 200.22 168.162 200.06 167.455 200.06H164.655V203.5ZM178.987 208.94H184.327V211H176.627V198.02H178.987V208.94ZM192.854 197.76C193.721 197.76 194.514 197.907 195.234 198.2C195.954 198.48 196.574 198.9 197.094 199.46C198.187 200.633 198.734 202.313 198.734 204.5C198.734 206.7 198.187 208.4 197.094 209.6C196.054 210.72 194.634 211.28 192.834 211.28C191.047 211.28 189.634 210.707 188.594 209.56C187.501 208.373 186.954 206.687 186.954 204.5C186.954 202.287 187.501 200.593 188.594 199.42C189.621 198.313 191.041 197.76 192.854 197.76ZM196.294 204.54C196.294 203.047 195.981 201.9 195.354 201.1C194.741 200.287 193.907 199.88 192.854 199.88C191.801 199.88 190.961 200.287 190.334 201.1C189.707 201.9 189.394 203.047 189.394 204.54C189.394 206.02 189.707 207.16 190.334 207.96C190.961 208.747 191.801 209.14 192.854 209.14C193.907 209.14 194.741 208.747 195.354 207.96C195.981 207.16 196.294 206.02 196.294 204.54ZM210.85 208.94C210.29 210.5 209.216 211.28 207.63 211.28C206.003 211.28 204.663 210.667 203.61 209.44C202.516 208.173 201.97 206.553 201.97 204.58C201.97 202.5 202.556 200.833 203.73 199.58C204.863 198.367 206.323 197.76 208.11 197.76C209.323 197.76 210.336 198.027 211.15 198.56C211.976 199.08 212.623 199.907 213.09 201.04L210.67 201.6C209.963 200.467 209.07 199.9 207.99 199.9C207.003 199.9 206.183 200.32 205.53 201.16C204.85 202.013 204.51 203.153 204.51 204.58C204.51 205.927 204.816 207.02 205.43 207.86C206.03 208.687 206.83 209.1 207.83 209.1C208.683 209.1 209.383 208.827 209.93 208.28C210.49 207.72 210.77 206.953 210.77 205.98V205.9L207.85 205.84V204.32H213.03V211H211.11L210.85 208.94Z" fill="white"/>
<path d="M143.113 262.02H146.073L150.333 275H147.833L146.933 272.2H142.113L141.193 275H138.693L143.113 262.02ZM142.713 270.42H146.353L144.553 264.84L142.713 270.42ZM158.656 261.76C159.456 261.76 160.149 261.86 160.736 262.06C161.323 262.247 161.829 262.513 162.256 262.86C163.096 263.54 163.643 264.493 163.896 265.72L161.376 266.18C161.163 265.5 160.829 264.953 160.376 264.54C159.936 264.113 159.383 263.9 158.716 263.9C157.809 263.9 157.076 264.28 156.516 265.04C155.916 265.867 155.616 267.013 155.616 268.48C155.616 269.933 155.883 271.073 156.416 271.9C156.949 272.713 157.676 273.12 158.596 273.12C159.516 273.12 160.209 272.9 160.676 272.46C161.143 272.007 161.376 271.427 161.376 270.72H163.916C163.916 272.173 163.449 273.3 162.516 274.1C161.596 274.887 160.329 275.28 158.716 275.28C156.996 275.28 155.629 274.68 154.616 273.48C153.589 272.253 153.076 270.587 153.076 268.48C153.076 266.347 153.603 264.68 154.656 263.48C155.669 262.333 157.003 261.76 158.656 261.76ZM172.695 261.76C173.495 261.76 174.189 261.86 174.775 262.06C175.362 262.247 175.869 262.513 176.295 262.86C177.135 263.54 177.682 264.493 177.935 265.72L175.415 266.18C175.202 265.5 174.869 264.953 174.415 264.54C173.975 264.113 173.422 263.9 172.755 263.9C171.849 263.9 171.115 264.28 170.555 265.04C169.955 265.867 169.655 267.013 169.655 268.48C169.655 269.933 169.922 271.073 170.455 271.9C170.989 272.713 171.715 273.12 172.635 273.12C173.555 273.12 174.249 272.9 174.715 272.46C175.182 272.007 175.415 271.427 175.415 270.72H177.955C177.955 272.173 177.489 273.3 176.555 274.1C175.635 274.887 174.369 275.28 172.755 275.28C171.035 275.28 169.669 274.68 168.655 273.48C167.629 272.253 167.115 270.587 167.115 268.48C167.115 266.347 167.642 264.68 168.695 263.48C169.709 262.333 171.042 261.76 172.695 261.76ZM187.055 261.76C187.922 261.76 188.715 261.907 189.435 262.2C190.155 262.48 190.775 262.9 191.295 263.46C192.388 264.633 192.935 266.313 192.935 268.5C192.935 270.7 192.388 272.4 191.295 273.6C190.255 274.72 188.835 275.28 187.035 275.28C185.248 275.28 183.835 274.707 182.795 273.56C181.702 272.373 181.155 270.687 181.155 268.5C181.155 266.287 181.702 264.593 182.795 263.42C183.822 262.313 185.242 261.76 187.055 261.76ZM190.495 268.54C190.495 267.047 190.182 265.9 189.555 265.1C188.942 264.287 188.108 263.88 187.055 263.88C186.002 263.88 185.162 264.287 184.535 265.1C183.908 265.9 183.595 267.047 183.595 268.54C183.595 270.02 183.908 271.16 184.535 271.96C185.162 272.747 186.002 273.14 187.055 273.14C188.108 273.14 188.942 272.747 189.555 271.96C190.182 271.16 190.495 270.02 190.495 268.54ZM199.251 262.02V270.1C199.251 271.167 199.517 271.933 200.051 272.4C200.597 272.867 201.297 273.1 202.151 273.1C203.004 273.1 203.697 272.867 204.231 272.4C204.777 271.933 205.051 271.167 205.051 270.1V262.02H207.411V270.1C207.411 271.753 206.951 273.033 206.031 273.94C205.111 274.833 203.817 275.28 202.151 275.28C200.484 275.28 199.191 274.833 198.271 273.94C197.351 273.033 196.891 271.753 196.891 270.1V262.02H199.251ZM214.803 262.02L220.523 271.22V262.02H222.883V275H220.483L214.583 265.48V275H212.223V262.02H214.803ZM226.223 262.02H236.623V264.06H232.603V275H230.243V264.06H226.223V262.02Z" fill="white"/>
<path d="M126.549 335.02L129.709 345.04L132.909 335.02H135.389L130.929 348H128.449L124.049 335.02H126.549ZM139.021 335.02H141.381V348H139.021V335.02ZM146.439 335.02H154.799V337.06H148.799V340.48H154.419V342.52H148.799V345.94H154.799V348H146.439V335.02ZM160.721 335.02L163.581 344.88L166.361 335.88H167.961L170.901 344.92L173.941 335.02H176.601L172.141 348H169.661L167.221 340.68L164.801 348H162.321L158.081 335.02H160.721ZM191.163 335.02C192.63 335.02 193.77 335.38 194.583 336.1C195.41 336.807 195.823 337.827 195.823 339.16C195.823 340.48 195.41 341.5 194.583 342.22C193.77 342.927 192.63 343.28 191.163 343.28H188.963V348H186.583V335.02H191.163ZM191.163 341.22C191.897 341.22 192.45 341.027 192.823 340.64C193.197 340.253 193.383 339.76 193.383 339.16C193.383 338.547 193.197 338.047 192.823 337.66C192.45 337.26 191.897 337.06 191.163 337.06H188.963V341.22H191.163ZM201.988 345.94H207.328V348H199.628V335.02H201.988V345.94ZM213.875 335.02H216.835L221.095 348H218.595L217.695 345.2H212.875L211.955 348H209.455L213.875 335.02ZM213.475 343.42H217.115L215.315 337.84L213.475 343.42ZM227.298 335.02L233.018 344.22V335.02H235.378V348H232.978L227.078 338.48V348H224.718V335.02H227.298ZM247.277 338.6C247.064 337.467 246.264 336.9 244.877 336.9C244.197 336.9 243.664 337.04 243.277 337.32C242.904 337.587 242.717 337.913 242.717 338.3C242.717 338.687 242.837 338.993 243.077 339.22C243.331 339.433 243.717 339.633 244.237 339.82L247.057 340.92C248.017 341.293 248.757 341.767 249.277 342.34C249.797 342.9 250.057 343.607 250.057 344.46C250.057 345.633 249.617 346.567 248.737 347.26C247.857 347.94 246.604 348.28 244.977 348.28C243.537 348.28 242.371 347.927 241.477 347.22C240.477 346.447 239.951 345.353 239.897 343.94H242.237C242.237 345.007 242.791 345.68 243.897 345.96C244.231 346.053 244.671 346.1 245.217 346.1C245.764 346.1 246.271 345.967 246.737 345.7C247.204 345.42 247.437 345.053 247.437 344.6C247.437 344.133 247.311 343.78 247.057 343.54C246.804 343.287 246.391 343.053 245.817 342.84L243.237 341.82C242.237 341.433 241.471 340.98 240.937 340.46C240.404 339.94 240.137 339.22 240.137 338.3C240.137 337.22 240.557 336.367 241.397 335.74C242.251 335.087 243.404 334.76 244.857 334.76C246.324 334.76 247.451 335.1 248.237 335.78C249.037 336.447 249.497 337.387 249.617 338.6H247.277Z" fill="white"/>
<rect x="24.75" y="312.75" width="325.5" height="54.5" stroke="white" stroke-width="1.5"/>
</svg>
